<svg width="1048" height="749" viewBox="0 0 1048 749" fill="none" xmlns="http://www.w3.org/2000/svg">
<rect y="74.9" width="5" height="100" fill="#E4E4E4"/>
<rect x="12" y="74.9" width="5" height="100" fill="#E4E4E4"/>
<rect x="24" y="74.9" width="5" height="100" fill="#E4E4E4"/>
<rect x="86.1486" y="103.9" width="5" height="100" transform="rotate(-90 86.1486 103.9)" fill="#E4E4E4"/>
<rect x="86.1486" y="91.9" width="5" height="100" transform="rotate(-90 86.1486 91.9)" fill="#E4E4E4"/>
<rect x="86.1486" y="79.9" width="5" height="100" transform="rotate(-90 86.1486 79.9)" fill="#E4E4E4"/>
<rect x="172.297" y="74.9" width="5" height="100" fill="#E4E4E4"/>
<rect x="184.297" y="74.9" width="5" height="100" fill="#E4E4E4"/>
<rect x="196.297" y="74.9" width="5" height="100" fill="#E4E4E4"/>
<rect x="430.743" y="103.9" width="5" height="100" transform="rotate(-90 430.743 103.9)" fill="#E4E4E4"/>
<rect x="430.743" y="91.9" width="5" height="100" transform="rotate(-90 430.743 91.9)" fill="#E4E4E4"/>
<rect x="430.743" y="79.9" width="5" height="100" transform="rotate(-90 430.743 79.9)" fill="#E4E4E4"/>
<rect x="516.892" y="74.9" width="5" height="100" fill="#E4E4E4"/>
<rect x="528.892" y="74.9" width="5" height="100" fill="#E4E4E4"/>
<rect x="540.892" y="74.9" width="5" height="100" fill="#E4E4E4"/>
<rect x="603.04" y="103.9" width="5" height="100" transform="rotate(-90 603.04 103.9)" fill="#E4E4E4"/>
<rect x="603.04" y="91.9" width="5" height="100" transform="rotate(-90 603.04 91.9)" fill="#E4E4E4"/>
<rect x="603.04" y="79.9" width="5" height="100" transform="rotate(-90 603.04 79.9)" fill="#E4E4E4"/>
<rect x="689.189" y="74.9" width="5" height="100" fill="#E4E4E4"/>
<rect x="701.189" y="74.9" width="5" height="100" fill="#E4E4E4"/>
<rect x="713.189" y="74.9" width="5" height="100" fill="#E4E4E4"/>
<rect y="178.8" width="5" height="100" transform="rotate(-90 0 178.8)" fill="#E4E4E4"/>
<rect y="166.8" width="5" height="100" transform="rotate(-90 0 166.8)" fill="#E4E4E4"/>
<rect y="154.8" width="5" height="100" transform="rotate(-90 0 154.8)" fill="#E4E4E4"/>
<rect x="86.1486" y="149.8" width="5" height="100" fill="#E4E4E4"/>
<rect x="98.1486" y="149.8" width="5" height="100" fill="#E4E4E4"/>
<rect x="110.149" y="149.8" width="5" height="100" fill="#E4E4E4"/>
<rect x="172.297" y="178.8" width="5" height="100" transform="rotate(-90 172.297 178.8)" fill="#E4E4E4"/>
<rect x="172.297" y="166.8" width="5" height="100" transform="rotate(-90 172.297 166.8)" fill="#E4E4E4"/>
<rect x="172.297" y="154.8" width="5" height="100" transform="rotate(-90 172.297 154.8)" fill="#E4E4E4"/>
<rect x="258.446" y="149.8" width="5" height="100" fill="#E4E4E4"/>
<rect x="270.446" y="149.8" width="5" height="100" fill="#E4E4E4"/>
<rect x="282.446" y="149.8" width="5" height="100" fill="#E4E4E4"/>
<rect x="344.594" y="178.8" width="5" height="100" transform="rotate(-90 344.594 178.8)" fill="#E4E4E4"/>
<rect x="344.594" y="166.8" width="5" height="100" transform="rotate(-90 344.594 166.8)" fill="#E4E4E4"/>
<rect x="344.594" y="154.8" width="5" height="100" transform="rotate(-90 344.594 154.8)" fill="#E4E4E4"/>
<rect x="430.743" y="149.8" width="5" height="100" fill="#E4E4E4"/>
<rect x="442.743" y="149.8" width="5" height="100" fill="#E4E4E4"/>
<rect x="454.743" y="149.8" width="5" height="100" fill="#E4E4E4"/>
<rect x="516.892" y="178.8" width="5" height="100" transform="rotate(-90 516.892 178.8)" fill="#E4E4E4"/>
<rect x="516.892" y="166.8" width="5" height="100" transform="rotate(-90 516.892 166.8)" fill="#E4E4E4"/>
<rect x="516.892" y="154.8" width="5" height="100" transform="rotate(-90 516.892 154.8)" fill="#E4E4E4"/>
<rect x="603.04" y="149.8" width="5" height="100" fill="#E4E4E4"/>
<rect x="615.04" y="149.8" width="5" height="100" fill="#E4E4E4"/>
<rect x="627.04" y="149.8" width="5" height="100" fill="#E4E4E4"/>
<rect x="689.189" y="178.8" width="5" height="100" transform="rotate(-90 689.189 178.8)" fill="#E4E4E4"/>
<rect x="689.189" y="166.8" width="5" height="100" transform="rotate(-90 689.189 166.8)" fill="#E4E4E4"/>
<rect x="689.189" y="154.8" width="5" height="100" transform="rotate(-90 689.189 154.8)" fill="#E4E4E4"/>
<rect x="775.337" y="149.8" width="5" height="100" fill="#E4E4E4"/>
<rect x="787.337" y="149.8" width="5" height="100" fill="#E4E4E4"/>
<rect x="799.337" y="149.8" width="5" height="100" fill="#E4E4E4"/>
<rect x="861.486" y="178.8" width="5" height="100" transform="rotate(-90 861.486 178.8)" fill="#E4E4E4"/>
<rect x="861.486" y="166.8" width="5" height="100" transform="rotate(-90 861.486 166.8)" fill="#E4E4E4"/>
<rect x="861.486" y="154.8" width="5" height="100" transform="rotate(-90 861.486 154.8)" fill="#E4E4E4"/>
<rect x="947.635" y="149.8" width="5" height="100" fill="#E4E4E4"/>
<rect x="959.635" y="149.8" width="5" height="100" fill="#E4E4E4"/>
<rect x="971.635" y="149.8" width="5" height="100" fill="#E4E4E4"/>
<rect y="224.7" width="5" height="100" fill="#E4E4E4"/>
<rect x="12" y="224.7" width="5" height="100" fill="#E4E4E4"/>
<rect x="24" y="224.7" width="5" height="100" fill="#E4E4E4"/>
<rect x="86.1486" y="253.7" width="5" height="100" transform="rotate(-90 86.1486 253.7)" fill="#E4E4E4"/>
<rect x="86.1486" y="241.7" width="5" height="100" transform="rotate(-90 86.1486 241.7)" fill="#E4E4E4"/>
<rect x="86.1486" y="229.7" width="5" height="100" transform="rotate(-90 86.1486 229.7)" fill="#E4E4E4"/>
<rect x="172.297" y="224.7" width="5" height="100" fill="#E4E4E4"/>
<rect x="184.297" y="224.7" width="5" height="100" fill="#E4E4E4"/>
<rect x="196.297" y="224.7" width="5" height="100" fill="#E4E4E4"/>
<rect x="258.446" y="253.7" width="5" height="100" transform="rotate(-90 258.446 253.7)" fill="#E4E4E4"/>
<rect x="258.446" y="241.7" width="5" height="100" transform="rotate(-90 258.446 241.7)" fill="#E4E4E4"/>
<rect x="258.446" y="229.7" width="5" height="100" transform="rotate(-90 258.446 229.7)" fill="#E4E4E4"/>
<rect x="344.594" y="224.7" width="5" height="100" fill="#E4E4E4"/>
<rect x="356.594" y="224.7" width="5" height="100" fill="#E4E4E4"/>
<rect x="368.594" y="224.7" width="5" height="100" fill="#E4E4E4"/>
<rect x="430.743" y="253.7" width="5" height="100" transform="rotate(-90 430.743 253.7)" fill="#E4E4E4"/>
<rect x="430.743" y="241.7" width="5" height="100" transform="rotate(-90 430.743 241.7)" fill="#E4E4E4"/>
<rect x="430.743" y="229.7" width="5" height="100" transform="rotate(-90 430.743 229.7)" fill="#E4E4E4"/>
<rect x="516.892" y="224.7" width="5" height="100" fill="#E4E4E4"/>
<rect x="528.892" y="224.7" width="5" height="100" fill="#E4E4E4"/>
<rect x="540.892" y="224.7" width="5" height="100" fill="#E4E4E4"/>
<rect x="603.04" y="253.7" width="5" height="100" transform="rotate(-90 603.04 253.7)" fill="#E4E4E4"/>
<rect x="603.04" y="241.7" width="5" height="100" transform="rotate(-90 603.04 241.7)" fill="#E4E4E4"/>
<rect x="603.04" y="229.7" width="5" height="100" transform="rotate(-90 603.04 229.7)" fill="#E4E4E4"/>
<rect x="689.189" y="224.7" width="5" height="100" fill="#E4E4E4"/>
<rect x="701.189" y="224.7" width="5" height="100" fill="#E4E4E4"/>
<rect x="713.189" y="224.7" width="5" height="100" fill="#E4E4E4"/>
<rect x="775.337" y="253.7" width="5" height="100" transform="rotate(-90 775.337 253.7)" fill="#E4E4E4"/>
<rect x="775.337" y="241.7" width="5" height="100" transform="rotate(-90 775.337 241.7)" fill="#E4E4E4"/>
<rect x="775.337" y="229.7" width="5" height="100" transform="rotate(-90 775.337 229.7)" fill="#E4E4E4"/>
<rect x="861.486" y="224.7" width="5" height="100" fill="#E4E4E4"/>
<rect x="873.486" y="224.7" width="5" height="100" fill="#E4E4E4"/>
<rect x="885.486" y="224.7" width="5" height="100" fill="#E4E4E4"/>
<rect x="947.635" y="253.7" width="5" height="100" transform="rotate(-90 947.635 253.7)" fill="#E4E4E4"/>
<rect x="947.635" y="241.7" width="5" height="100" transform="rotate(-90 947.635 241.7)" fill="#E4E4E4"/>
<rect x="947.635" y="229.7" width="5" height="100" transform="rotate(-90 947.635 229.7)" fill="#E4E4E4"/>
<rect y="328.6" width="5" height="100" transform="rotate(-90 0 328.6)" fill="#E4E4E4"/>
<rect y="316.6" width="5" height="100" transform="rotate(-90 0 316.6)" fill="#E4E4E4"/>
<rect y="304.6" width="5" height="100" transform="rotate(-90 0 304.6)" fill="#E4E4E4"/>
<rect x="86.1486" y="299.6" width="5" height="100" fill="#E4E4E4"/>
<rect x="98.1486" y="299.6" width="5" height="100" fill="#E4E4E4"/>
<rect x="110.149" y="299.6" width="5" height="100" fill="#E4E4E4"/>
<rect x="172.297" y="328.6" width="5" height="100" transform="rotate(-90 172.297 328.6)" fill="#E4E4E4"/>
<rect x="172.297" y="316.6" width="5" height="100" transform="rotate(-90 172.297 316.6)" fill="#E4E4E4"/>
<rect x="172.297" y="304.6" width="5" height="100" transform="rotate(-90 172.297 304.6)" fill="#E4E4E4"/>
<rect x="258.446" y="299.6" width="5" height="100" fill="#E4E4E4"/>
<rect x="270.446" y="299.6" width="5" height="100" fill="#E4E4E4"/>
<rect x="282.446" y="299.6" width="5" height="100" fill="#E4E4E4"/>
<rect x="344.594" y="328.6" width="5" height="100" transform="rotate(-90 344.594 328.6)" fill="#E4E4E4"/>
<rect x="344.594" y="316.6" width="5" height="100" transform="rotate(-90 344.594 316.6)" fill="#E4E4E4"/>
<rect x="344.594" y="304.6" width="5" height="100" transform="rotate(-90 344.594 304.6)" fill="#E4E4E4"/>
<rect x="430.743" y="299.6" width="5" height="100" fill="#E4E4E4"/>
<rect x="442.743" y="299.6" width="5" height="100" fill="#E4E4E4"/>
<rect x="454.743" y="299.6" width="5" height="100" fill="#E4E4E4"/>
<rect x="516.892" y="328.6" width="5" height="100" transform="rotate(-90 516.892 328.6)" fill="#E4E4E4"/>
<rect x="516.892" y="316.6" width="5" height="100" transform="rotate(-90 516.892 316.6)" fill="#E4E4E4"/>
<rect x="516.892" y="304.6" width="5" height="100" transform="rotate(-90 516.892 304.6)" fill="#E4E4E4"/>
<rect x="603.04" y="299.6" width="5" height="100" fill="#E4E4E4"/>
<rect x="615.04" y="299.6" width="5" height="100" fill="#E4E4E4"/>
<rect x="627.04" y="299.6" width="5" height="100" fill="#E4E4E4"/>
<rect x="689.189" y="328.6" width="5" height="100" transform="rotate(-90 689.189 328.6)" fill="#E4E4E4"/>
<rect x="689.189" y="316.6" width="5" height="100" transform="rotate(-90 689.189 316.6)" fill="#E4E4E4"/>
<rect x="689.189" y="304.6" width="5" height="100" transform="rotate(-90 689.189 304.6)" fill="#E4E4E4"/>
<rect x="775.337" y="299.6" width="5" height="100" fill="#E4E4E4"/>
<rect x="787.337" y="299.6" width="5" height="100" fill="#E4E4E4"/>
<rect x="799.337" y="299.6" width="5" height="100" fill="#E4E4E4"/>
<rect x="861.486" y="328.6" width="5" height="100" transform="rotate(-90 861.486 328.6)" fill="#E4E4E4"/>
<rect x="861.486" y="316.6" width="5" height="100" transform="rotate(-90 861.486 316.6)" fill="#E4E4E4"/>
<rect x="861.486" y="304.6" width="5" height="100" transform="rotate(-90 861.486 304.6)" fill="#E4E4E4"/>
<rect x="947.635" y="299.6" width="5" height="100" fill="#E4E4E4"/>
<rect x="959.635" y="299.6" width="5" height="100" fill="#E4E4E4"/>
<rect x="971.635" y="299.6" width="5" height="100" fill="#E4E4E4"/>
<rect y="374.5" width="5" height="100" fill="#E4E4E4"/>
<rect x="12" y="374.5" width="5" height="100" fill="#E4E4E4"/>
<rect x="24" y="374.5" width="5" height="100" fill="#E4E4E4"/>
<rect x="86.1486" y="403.5" width="5" height="100" transform="rotate(-90 86.1486 403.5)" fill="#E4E4E4"/>
<rect x="86.1486" y="391.5" width="5" height="100" transform="rotate(-90 86.1486 391.5)" fill="#E4E4E4"/>
<rect x="86.1486" y="379.5" width="5" height="100" transform="rotate(-90 86.1486 379.5)" fill="#E4E4E4"/>
<rect x="172.297" y="374.5" width="5" height="100" fill="#E4E4E4"/>
<rect x="184.297" y="374.5" width="5" height="100" fill="#E4E4E4"/>
<rect x="196.297" y="374.5" width="5" height="100" fill="#E4E4E4"/>
<rect x="258.446" y="403.5" width="5" height="100" transform="rotate(-90 258.446 403.5)" fill="#E4E4E4"/>
<rect x="258.446" y="391.5" width="5" height="100" transform="rotate(-90 258.446 391.5)" fill="#E4E4E4"/>
<rect x="258.446" y="379.5" width="5" height="100" transform="rotate(-90 258.446 379.5)" fill="#E4E4E4"/>
<rect x="344.594" y="374.5" width="5" height="100" fill="#E4E4E4"/>
<rect x="356.594" y="374.5" width="5" height="100" fill="#E4E4E4"/>
<rect x="368.594" y="374.5" width="5" height="100" fill="#E4E4E4"/>
<rect x="430.743" y="403.5" width="5" height="100" transform="rotate(-90 430.743 403.5)" fill="#E4E4E4"/>
<rect x="430.743" y="391.5" width="5" height="100" transform="rotate(-90 430.743 391.5)" fill="#E4E4E4"/>
<rect x="430.743" y="379.5" width="5" height="100" transform="rotate(-90 430.743 379.5)" fill="#E4E4E4"/>
<rect x="516.892" y="374.5" width="5" height="100" fill="#E4E4E4"/>
<rect x="528.892" y="374.5" width="5" height="100" fill="#E4E4E4"/>
<rect x="540.892" y="374.5" width="5" height="100" fill="#E4E4E4"/>
<rect x="603.04" y="403.5" width="5" height="100" transform="rotate(-90 603.04 403.5)" fill="#E4E4E4"/>
<rect x="603.04" y="391.5" width="5" height="100" transform="rotate(-90 603.04 391.5)" fill="#E4E4E4"/>
<rect x="603.04" y="379.5" width="5" height="100" transform="rotate(-90 603.04 379.5)" fill="#E4E4E4"/>
<rect x="689.189" y="374.5" width="5" height="100" fill="#E4E4E4"/>
<rect x="701.189" y="374.5" width="5" height="100" fill="#E4E4E4"/>
<rect x="713.189" y="374.5" width="5" height="100" fill="#E4E4E4"/>
<rect x="775.337" y="403.5" width="5" height="100" transform="rotate(-90 775.337 403.5)" fill="#E4E4E4"/>
<rect x="775.337" y="391.5" width="5" height="100" transform="rotate(-90 775.337 391.5)" fill="#E4E4E4"/>
<rect x="775.337" y="379.5" width="5" height="100" transform="rotate(-90 775.337 379.5)" fill="#E4E4E4"/>
<rect x="861.486" y="374.5" width="5" height="100" fill="#E4E4E4"/>
<rect x="873.486" y="374.5" width="5" height="100" fill="#E4E4E4"/>
<rect x="885.486" y="374.5" width="5" height="100" fill="#E4E4E4"/>
<rect x="947.635" y="403.5" width="5" height="100" transform="rotate(-90 947.635 403.5)" fill="#E4E4E4"/>
<rect x="947.635" y="391.5" width="5" height="100" transform="rotate(-90 947.635 391.5)" fill="#E4E4E4"/>
<rect x="947.635" y="379.5" width="5" height="100" transform="rotate(-90 947.635 379.5)" fill="#E4E4E4"/>
<rect y="478.4" width="5" height="100" transform="rotate(-90 0 478.4)" fill="#E4E4E4"/>
<rect y="466.4" width="5" height="100" transform="rotate(-90 0 466.4)" fill="#E4E4E4"/>
<rect y="454.4" width="5" height="100" transform="rotate(-90 0 454.4)" fill="#E4E4E4"/>
<rect x="86.1486" y="449.4" width="5" height="100" fill="#E4E4E4"/>
<rect x="98.1486" y="449.4" width="5" height="100" fill="#E4E4E4"/>
<rect x="110.149" y="449.4" width="5" height="100" fill="#E4E4E4"/>
<rect x="172.297" y="478.4" width="5" height="100" transform="rotate(-90 172.297 478.4)" fill="#E4E4E4"/>
<rect x="172.297" y="466.4" width="5" height="100" transform="rotate(-90 172.297 466.4)" fill="#E4E4E4"/>
<rect x="172.297" y="454.4" width="5" height="100" transform="rotate(-90 172.297 454.4)" fill="#E4E4E4"/>
<rect x="258.446" y="449.4" width="5" height="100" fill="#E4E4E4"/>
<rect x="270.446" y="449.4" width="5" height="100" fill="#E4E4E4"/>
<rect x="282.446" y="449.4" width="5" height="100" fill="#E4E4E4"/>
<rect x="344.594" y="478.4" width="5" height="100" transform="rotate(-90 344.594 478.4)" fill="#E4E4E4"/>
<rect x="344.594" y="466.4" width="5" height="100" transform="rotate(-90 344.594 466.4)" fill="#E4E4E4"/>
<rect x="344.594" y="454.4" width="5" height="100" transform="rotate(-90 344.594 454.4)" fill="#E4E4E4"/>
<rect x="430.743" y="449.4" width="5" height="100" fill="#E4E4E4"/>
<rect x="442.743" y="449.4" width="5" height="100" fill="#E4E4E4"/>
<rect x="454.743" y="449.4" width="5" height="100" fill="#E4E4E4"/>
<rect x="516.892" y="478.4" width="5" height="100" transform="rotate(-90 516.892 478.4)" fill="#E4E4E4"/>
<rect x="516.892" y="466.4" width="5" height="100" transform="rotate(-90 516.892 466.4)" fill="#E4E4E4"/>
<rect x="516.892" y="454.4" width="5" height="100" transform="rotate(-90 516.892 454.4)" fill="#E4E4E4"/>
<rect x="603.04" y="449.4" width="5" height="100" fill="#E4E4E4"/>
<rect x="615.04" y="449.4" width="5" height="100" fill="#E4E4E4"/>
<rect x="627.04" y="449.4" width="5" height="100" fill="#E4E4E4"/>
<rect x="689.189" y="478.4" width="5" height="100" transform="rotate(-90 689.189 478.4)" fill="#E4E4E4"/>
<rect x="689.189" y="466.4" width="5" height="100" transform="rotate(-90 689.189 466.4)" fill="#E4E4E4"/>
<rect x="689.189" y="454.4" width="5" height="100" transform="rotate(-90 689.189 454.4)" fill="#E4E4E4"/>
<rect x="775.337" y="449.4" width="5" height="100" fill="#E4E4E4"/>
<rect x="787.337" y="449.4" width="5" height="100" fill="#E4E4E4"/>
<rect x="799.337" y="449.4" width="5" height="100" fill="#E4E4E4"/>
<rect x="861.486" y="478.4" width="5" height="100" transform="rotate(-90 861.486 478.4)" fill="#E4E4E4"/>
<rect x="861.486" y="466.4" width="5" height="100" transform="rotate(-90 861.486 466.4)" fill="#E4E4E4"/>
<rect x="861.486" y="454.4" width="5" height="100" transform="rotate(-90 861.486 454.4)" fill="#E4E4E4"/>
<rect x="947.635" y="449.4" width="5" height="100" fill="#E4E4E4"/>
<rect x="959.635" y="449.4" width="5" height="100" fill="#E4E4E4"/>
<rect x="971.635" y="449.4" width="5" height="100" fill="#E4E4E4"/>
<rect x="86.1486" y="553.3" width="5" height="100" transform="rotate(-90 86.1486 553.3)" fill="#E4E4E4"/>
<rect x="86.1486" y="541.3" width="5" height="100" transform="rotate(-90 86.1486 541.3)" fill="#E4E4E4"/>
<rect x="86.1486" y="529.3" width="5" height="100" transform="rotate(-90 86.1486 529.3)" fill="#E4E4E4"/>
<rect x="172.297" y="524.3" width="5" height="100" fill="#E4E4E4"/>
<rect x="184.297" y="524.3" width="5" height="100" fill="#E4E4E4"/>
<rect x="196.297" y="524.3" width="5" height="100" fill="#E4E4E4"/>
<rect x="258.446" y="553.3" width="5" height="100" transform="rotate(-90 258.446 553.3)" fill="#E4E4E4"/>
<rect x="258.446" y="541.3" width="5" height="100" transform="rotate(-90 258.446 541.3)" fill="#E4E4E4"/>
<rect x="258.446" y="529.3" width="5" height="100" transform="rotate(-90 258.446 529.3)" fill="#E4E4E4"/>
<rect x="344.594" y="524.3" width="5" height="100" fill="#E4E4E4"/>
<rect x="356.594" y="524.3" width="5" height="100" fill="#E4E4E4"/>
<rect x="368.594" y="524.3" width="5" height="100" fill="#E4E4E4"/>
<rect x="430.743" y="553.3" width="5" height="100" transform="rotate(-90 430.743 553.3)" fill="#E4E4E4"/>
<rect x="430.743" y="541.3" width="5" height="100" transform="rotate(-90 430.743 541.3)" fill="#E4E4E4"/>
<rect x="430.743" y="529.3" width="5" height="100" transform="rotate(-90 430.743 529.3)" fill="#E4E4E4"/>
<rect x="516.892" y="524.3" width="5" height="100" fill="#E4E4E4"/>
<rect x="528.892" y="524.3" width="5" height="100" fill="#E4E4E4"/>
<rect x="540.892" y="524.3" width="5" height="100" fill="#E4E4E4"/>
<rect x="603.04" y="553.3" width="5" height="100" transform="rotate(-90 603.04 553.3)" fill="#E4E4E4"/>
<rect x="603.04" y="541.3" width="5" height="100" transform="rotate(-90 603.04 541.3)" fill="#E4E4E4"/>
<rect x="603.04" y="529.3" width="5" height="100" transform="rotate(-90 603.04 529.3)" fill="#E4E4E4"/>
<rect x="689.189" y="524.3" width="5" height="100" fill="#E4E4E4"/>
<rect x="701.189" y="524.3" width="5" height="100" fill="#E4E4E4"/>
<rect x="713.189" y="524.3" width="5" height="100" fill="#E4E4E4"/>
<rect x="775.337" y="553.3" width="5" height="100" transform="rotate(-90 775.337 553.3)" fill="#E4E4E4"/>
<rect x="775.337" y="541.3" width="5" height="100" transform="rotate(-90 775.337 541.3)" fill="#E4E4E4"/>
<rect x="775.337" y="529.3" width="5" height="100" transform="rotate(-90 775.337 529.3)" fill="#E4E4E4"/>
<rect x="861.486" y="524.3" width="5" height="100" fill="#E4E4E4"/>
<rect x="873.486" y="524.3" width="5" height="100" fill="#E4E4E4"/>
<rect x="885.486" y="524.3" width="5" height="100" fill="#E4E4E4"/>
<rect x="947.635" y="553.3" width="5" height="100" transform="rotate(-90 947.635 553.3)" fill="#E4E4E4"/>
<rect x="947.635" y="541.3" width="5" height="100" transform="rotate(-90 947.635 541.3)" fill="#E4E4E4"/>
<rect x="947.635" y="529.3" width="5" height="100" transform="rotate(-90 947.635 529.3)" fill="#E4E4E4"/>
<rect x="344.594" y="628.2" width="5" height="100" transform="rotate(-90 344.594 628.2)" fill="#E4E4E4"/>
<rect x="344.594" y="616.2" width="5" height="100" transform="rotate(-90 344.594 616.2)" fill="#E4E4E4"/>
<rect x="344.594" y="604.2" width="5" height="100" transform="rotate(-90 344.594 604.2)" fill="#E4E4E4"/>
<rect x="430.743" y="599.2" width="5" height="100" fill="#E4E4E4"/>
<rect x="442.743" y="599.2" width="5" height="100" fill="#E4E4E4"/>
<rect x="454.743" y="599.2" width="5" height="100" fill="#E4E4E4"/>
<rect x="861.486" y="628.2" width="5" height="100" transform="rotate(-90 861.486 628.2)" fill="#E4E4E4"/>
<rect x="861.486" y="616.2" width="5" height="100" transform="rotate(-90 861.486 616.2)" fill="#E4E4E4"/>
<rect x="861.486" y="604.2" width="5" height="100" transform="rotate(-90 861.486 604.2)" fill="#E4E4E4"/>
<rect x="947.635" y="599.2" width="5" height="100" fill="#E4E4E4"/>
<rect x="959.635" y="599.2" width="5" height="100" fill="#E4E4E4"/>
<rect x="971.635" y="599.2" width="5" height="100" fill="#E4E4E4"/>
</svg>
