<svg width="1015" height="749" viewBox="0 0 1015 749" fill="none" xmlns="http://www.w3.org/2000/svg">
<rect x="83.6084" y="563.108" width="5" height="100" transform="rotate(-90 83.6084 563.108)" fill="#E4E4E4"/>
<rect x="83.6084" y="551.108" width="5" height="100" transform="rotate(-90 83.6084 551.108)" fill="#E4E4E4"/>
<rect x="83.6084" y="539.108" width="5" height="100" transform="rotate(-90 83.6084 539.108)" fill="#E4E4E4"/>
<rect x="582.608" y="563.108" width="5" height="100" transform="rotate(-90 582.608 563.108)" fill="#E4E4E4"/>
<rect x="582.608" y="551.108" width="5" height="100" transform="rotate(-90 582.608 551.108)" fill="#E4E4E4"/>
<rect x="582.608" y="539.108" width="5" height="100" transform="rotate(-90 582.608 539.108)" fill="#E4E4E4"/>
<rect x="332.608" y="634.108" width="5" height="100" transform="rotate(-90 332.608 634.108)" fill="#E4E4E4"/>
<rect x="332.608" y="622.108" width="5" height="100" transform="rotate(-90 332.608 622.108)" fill="#E4E4E4"/>
<rect x="332.608" y="610.108" width="5" height="100" transform="rotate(-90 332.608 610.108)" fill="#E4E4E4"/>
<rect x="831.608" y="634.108" width="5" height="100" transform="rotate(-90 831.608 634.108)" fill="#E4E4E4"/>
<rect x="831.608" y="622.108" width="5" height="100" transform="rotate(-90 831.608 622.108)" fill="#E4E4E4"/>
<rect x="831.608" y="610.108" width="5" height="100" transform="rotate(-90 831.608 610.108)" fill="#E4E4E4"/>
<rect x="166" y="492.108" width="5" height="100" transform="rotate(-90 166 492.108)" fill="#E4E4E4"/>
<rect x="166" y="480.108" width="5" height="100" transform="rotate(-90 166 480.108)" fill="#E4E4E4"/>
<rect x="166" y="468.108" width="5" height="100" transform="rotate(-90 166 468.108)" fill="#E4E4E4"/>
<rect x="665" y="492.108" width="5" height="100" transform="rotate(-90 665 492.108)" fill="#E4E4E4"/>
<rect x="665" y="480.108" width="5" height="100" transform="rotate(-90 665 480.108)" fill="#E4E4E4"/>
<rect x="665" y="468.108" width="5" height="100" transform="rotate(-90 665 468.108)" fill="#E4E4E4"/>
<rect x="415" y="563.108" width="5" height="100" transform="rotate(-90 415 563.108)" fill="#E4E4E4"/>
<rect x="415" y="551.108" width="5" height="100" transform="rotate(-90 415 551.108)" fill="#E4E4E4"/>
<rect x="415" y="539.108" width="5" height="100" transform="rotate(-90 415 539.108)" fill="#E4E4E4"/>
<rect x="914" y="563.108" width="5" height="100" transform="rotate(-90 914 563.108)" fill="#E4E4E4"/>
<rect x="914" y="551.108" width="5" height="100" transform="rotate(-90 914 551.108)" fill="#E4E4E4"/>
<rect x="914" y="539.108" width="5" height="100" transform="rotate(-90 914 539.108)" fill="#E4E4E4"/>
<rect y="492.108" width="5" height="100" transform="rotate(-90 0 492.108)" fill="#E4E4E4"/>
<rect y="480.108" width="5" height="100" transform="rotate(-90 0 480.108)" fill="#E4E4E4"/>
<rect y="468.108" width="5" height="100" transform="rotate(-90 0 468.108)" fill="#E4E4E4"/>
<rect x="499" y="492.108" width="5" height="100" transform="rotate(-90 499 492.108)" fill="#E4E4E4"/>
<rect x="499" y="480.108" width="5" height="100" transform="rotate(-90 499 480.108)" fill="#E4E4E4"/>
<rect x="499" y="468.108" width="5" height="100" transform="rotate(-90 499 468.108)" fill="#E4E4E4"/>
<rect x="249" y="563.108" width="5" height="100" transform="rotate(-90 249 563.108)" fill="#E4E4E4"/>
<rect x="249" y="551.108" width="5" height="100" transform="rotate(-90 249 551.108)" fill="#E4E4E4"/>
<rect x="249" y="539.108" width="5" height="100" transform="rotate(-90 249 539.108)" fill="#E4E4E4"/>
<rect x="748" y="563.108" width="5" height="100" transform="rotate(-90 748 563.108)" fill="#E4E4E4"/>
<rect x="748" y="551.108" width="5" height="100" transform="rotate(-90 748 551.108)" fill="#E4E4E4"/>
<rect x="748" y="539.108" width="5" height="100" transform="rotate(-90 748 539.108)" fill="#E4E4E4"/>
<rect x="84" y="252.108" width="5" height="100" transform="rotate(-90 84 252.108)" fill="#E4E4E4"/>
<rect x="84" y="240.108" width="5" height="100" transform="rotate(-90 84 240.108)" fill="#E4E4E4"/>
<rect x="84" y="228.108" width="5" height="100" transform="rotate(-90 84 228.108)" fill="#E4E4E4"/>
<rect x="583" y="252.108" width="5" height="100" transform="rotate(-90 583 252.108)" fill="#E4E4E4"/>
<rect x="583" y="240.108" width="5" height="100" transform="rotate(-90 583 240.108)" fill="#E4E4E4"/>
<rect x="583" y="228.108" width="5" height="100" transform="rotate(-90 583 228.108)" fill="#E4E4E4"/>
<rect x="333" y="323.108" width="5" height="100" transform="rotate(-90 333 323.108)" fill="#E4E4E4"/>
<rect x="333" y="311.108" width="5" height="100" transform="rotate(-90 333 311.108)" fill="#E4E4E4"/>
<rect x="333" y="299.108" width="5" height="100" transform="rotate(-90 333 299.108)" fill="#E4E4E4"/>
<rect x="832" y="323.108" width="5" height="100" transform="rotate(-90 832 323.108)" fill="#E4E4E4"/>
<rect x="832" y="311.108" width="5" height="100" transform="rotate(-90 832 311.108)" fill="#E4E4E4"/>
<rect x="832" y="299.108" width="5" height="100" transform="rotate(-90 832 299.108)" fill="#E4E4E4"/>
<rect x="166.392" y="181.108" width="5" height="100" transform="rotate(-90 166.392 181.108)" fill="#E4E4E4"/>
<rect x="166.392" y="169.108" width="5" height="100" transform="rotate(-90 166.392 169.108)" fill="#E4E4E4"/>
<rect x="166.392" y="157.108" width="5" height="100" transform="rotate(-90 166.392 157.108)" fill="#E4E4E4"/>
<rect x="665.392" y="181.108" width="5" height="100" transform="rotate(-90 665.392 181.108)" fill="#E4E4E4"/>
<rect x="665.392" y="169.108" width="5" height="100" transform="rotate(-90 665.392 169.108)" fill="#E4E4E4"/>
<rect x="665.392" y="157.108" width="5" height="100" transform="rotate(-90 665.392 157.108)" fill="#E4E4E4"/>
<rect x="415.392" y="252.108" width="5" height="100" transform="rotate(-90 415.392 252.108)" fill="#E4E4E4"/>
<rect x="415.392" y="240.108" width="5" height="100" transform="rotate(-90 415.392 240.108)" fill="#E4E4E4"/>
<rect x="415.392" y="228.108" width="5" height="100" transform="rotate(-90 415.392 228.108)" fill="#E4E4E4"/>
<rect x="914.392" y="252.108" width="5" height="100" transform="rotate(-90 914.392 252.108)" fill="#E4E4E4"/>
<rect x="914.392" y="240.108" width="5" height="100" transform="rotate(-90 914.392 240.108)" fill="#E4E4E4"/>
<rect x="914.392" y="228.108" width="5" height="100" transform="rotate(-90 914.392 228.108)" fill="#E4E4E4"/>
<rect x="0.391602" y="181.108" width="5" height="100" transform="rotate(-90 0.391602 181.108)" fill="#E4E4E4"/>
<rect x="0.391602" y="169.108" width="5" height="100" transform="rotate(-90 0.391602 169.108)" fill="#E4E4E4"/>
<rect x="0.391602" y="157.108" width="5" height="100" transform="rotate(-90 0.391602 157.108)" fill="#E4E4E4"/>
<rect x="499.392" y="181.108" width="5" height="100" transform="rotate(-90 499.392 181.108)" fill="#E4E4E4"/>
<rect x="499.392" y="169.108" width="5" height="100" transform="rotate(-90 499.392 169.108)" fill="#E4E4E4"/>
<rect x="499.392" y="157.108" width="5" height="100" transform="rotate(-90 499.392 157.108)" fill="#E4E4E4"/>
<rect x="249.392" y="252.108" width="5" height="100" transform="rotate(-90 249.392 252.108)" fill="#E4E4E4"/>
<rect x="249.392" y="240.108" width="5" height="100" transform="rotate(-90 249.392 240.108)" fill="#E4E4E4"/>
<rect x="249.392" y="228.108" width="5" height="100" transform="rotate(-90 249.392 228.108)" fill="#E4E4E4"/>
<rect x="748.392" y="252.108" width="5" height="100" transform="rotate(-90 748.392 252.108)" fill="#E4E4E4"/>
<rect x="748.392" y="240.108" width="5" height="100" transform="rotate(-90 748.392 240.108)" fill="#E4E4E4"/>
<rect x="748.392" y="228.108" width="5" height="100" transform="rotate(-90 748.392 228.108)" fill="#E4E4E4"/>
<rect x="84" y="411" width="5" height="100" transform="rotate(-90 84 411)" fill="#E4E4E4"/>
<rect x="84" y="399" width="5" height="100" transform="rotate(-90 84 399)" fill="#E4E4E4"/>
<rect x="84" y="387" width="5" height="100" transform="rotate(-90 84 387)" fill="#E4E4E4"/>
<rect x="583" y="411" width="5" height="100" transform="rotate(-90 583 411)" fill="#E4E4E4"/>
<rect x="583" y="399" width="5" height="100" transform="rotate(-90 583 399)" fill="#E4E4E4"/>
<rect x="583" y="387" width="5" height="100" transform="rotate(-90 583 387)" fill="#E4E4E4"/>
<rect x="333" y="482" width="5" height="100" transform="rotate(-90 333 482)" fill="#E4E4E4"/>
<rect x="333" y="470" width="5" height="100" transform="rotate(-90 333 470)" fill="#E4E4E4"/>
<rect x="333" y="458" width="5" height="100" transform="rotate(-90 333 458)" fill="#E4E4E4"/>
<rect x="832" y="482" width="5" height="100" transform="rotate(-90 832 482)" fill="#E4E4E4"/>
<rect x="832" y="470" width="5" height="100" transform="rotate(-90 832 470)" fill="#E4E4E4"/>
<rect x="832" y="458" width="5" height="100" transform="rotate(-90 832 458)" fill="#E4E4E4"/>
<rect x="166.392" y="340" width="5" height="100" transform="rotate(-90 166.392 340)" fill="#E4E4E4"/>
<rect x="166.392" y="328" width="5" height="100" transform="rotate(-90 166.392 328)" fill="#E4E4E4"/>
<rect x="166.392" y="316" width="5" height="100" transform="rotate(-90 166.392 316)" fill="#E4E4E4"/>
<rect x="665.392" y="340" width="5" height="100" transform="rotate(-90 665.392 340)" fill="#E4E4E4"/>
<rect x="665.392" y="328" width="5" height="100" transform="rotate(-90 665.392 328)" fill="#E4E4E4"/>
<rect x="665.392" y="316" width="5" height="100" transform="rotate(-90 665.392 316)" fill="#E4E4E4"/>
<rect x="415.392" y="411" width="5" height="100" transform="rotate(-90 415.392 411)" fill="#E4E4E4"/>
<rect x="415.392" y="399" width="5" height="100" transform="rotate(-90 415.392 399)" fill="#E4E4E4"/>
<rect x="415.392" y="387" width="5" height="100" transform="rotate(-90 415.392 387)" fill="#E4E4E4"/>
<rect x="914.392" y="411" width="5" height="100" transform="rotate(-90 914.392 411)" fill="#E4E4E4"/>
<rect x="914.392" y="399" width="5" height="100" transform="rotate(-90 914.392 399)" fill="#E4E4E4"/>
<rect x="914.392" y="387" width="5" height="100" transform="rotate(-90 914.392 387)" fill="#E4E4E4"/>
<rect x="0.391602" y="340" width="5" height="100" transform="rotate(-90 0.391602 340)" fill="#E4E4E4"/>
<rect x="0.391602" y="328" width="5" height="100" transform="rotate(-90 0.391602 328)" fill="#E4E4E4"/>
<rect x="0.391602" y="316" width="5" height="100" transform="rotate(-90 0.391602 316)" fill="#E4E4E4"/>
<rect x="499.392" y="340" width="5" height="100" transform="rotate(-90 499.392 340)" fill="#E4E4E4"/>
<rect x="499.392" y="328" width="5" height="100" transform="rotate(-90 499.392 328)" fill="#E4E4E4"/>
<rect x="499.392" y="316" width="5" height="100" transform="rotate(-90 499.392 316)" fill="#E4E4E4"/>
<rect x="249.392" y="411" width="5" height="100" transform="rotate(-90 249.392 411)" fill="#E4E4E4"/>
<rect x="249.392" y="399" width="5" height="100" transform="rotate(-90 249.392 399)" fill="#E4E4E4"/>
<rect x="249.392" y="387" width="5" height="100" transform="rotate(-90 249.392 387)" fill="#E4E4E4"/>
<rect x="748.392" y="411" width="5" height="100" transform="rotate(-90 748.392 411)" fill="#E4E4E4"/>
<rect x="748.392" y="399" width="5" height="100" transform="rotate(-90 748.392 399)" fill="#E4E4E4"/>
<rect x="748.392" y="387" width="5" height="100" transform="rotate(-90 748.392 387)" fill="#E4E4E4"/>
<rect x="84.3916" y="100" width="5" height="100" transform="rotate(-90 84.3916 100)" fill="#E4E4E4"/>
<rect x="84.3916" y="88" width="5" height="100" transform="rotate(-90 84.3916 88)" fill="#E4E4E4"/>
<rect x="84.3916" y="76" width="5" height="100" transform="rotate(-90 84.3916 76)" fill="#E4E4E4"/>
<rect x="583.392" y="100" width="5" height="100" transform="rotate(-90 583.392 100)" fill="#E4E4E4"/>
<rect x="583.392" y="88" width="5" height="100" transform="rotate(-90 583.392 88)" fill="#E4E4E4"/>
<rect x="583.392" y="76" width="5" height="100" transform="rotate(-90 583.392 76)" fill="#E4E4E4"/>
<rect x="333.392" y="171" width="5" height="100" transform="rotate(-90 333.392 171)" fill="#E4E4E4"/>
<rect x="333.392" y="159" width="5" height="100" transform="rotate(-90 333.392 159)" fill="#E4E4E4"/>
<rect x="333.392" y="147" width="5" height="100" transform="rotate(-90 333.392 147)" fill="#E4E4E4"/>
<rect x="832.392" y="171" width="5" height="100" transform="rotate(-90 832.392 171)" fill="#E4E4E4"/>
<rect x="832.392" y="159" width="5" height="100" transform="rotate(-90 832.392 159)" fill="#E4E4E4"/>
<rect x="832.392" y="147" width="5" height="100" transform="rotate(-90 832.392 147)" fill="#E4E4E4"/>
<rect x="166.783" y="29" width="5" height="100" transform="rotate(-90 166.783 29)" fill="#E4E4E4"/>
<rect x="166.783" y="17" width="5" height="100" transform="rotate(-90 166.783 17)" fill="#E4E4E4"/>
<rect x="166.783" y="5" width="5" height="100" transform="rotate(-90 166.783 5)" fill="#E4E4E4"/>
<rect x="665.783" y="29" width="5" height="100" transform="rotate(-90 665.783 29)" fill="#E4E4E4"/>
<rect x="665.783" y="17" width="5" height="100" transform="rotate(-90 665.783 17)" fill="#E4E4E4"/>
<rect x="665.783" y="5" width="5" height="100" transform="rotate(-90 665.783 5)" fill="#E4E4E4"/>
<rect x="415.783" y="100" width="5" height="100" transform="rotate(-90 415.783 100)" fill="#E4E4E4"/>
<rect x="415.783" y="88" width="5" height="100" transform="rotate(-90 415.783 88)" fill="#E4E4E4"/>
<rect x="415.783" y="76" width="5" height="100" transform="rotate(-90 415.783 76)" fill="#E4E4E4"/>
<rect x="914.783" y="100" width="5" height="100" transform="rotate(-90 914.783 100)" fill="#E4E4E4"/>
<rect x="914.783" y="88" width="5" height="100" transform="rotate(-90 914.783 88)" fill="#E4E4E4"/>
<rect x="914.783" y="76" width="5" height="100" transform="rotate(-90 914.783 76)" fill="#E4E4E4"/>
<rect x="0.783203" y="29" width="5" height="100" transform="rotate(-90 0.783203 29)" fill="#E4E4E4"/>
<rect x="0.783203" y="17" width="5" height="100" transform="rotate(-90 0.783203 17)" fill="#E4E4E4"/>
<rect x="0.783203" y="5" width="5" height="100" transform="rotate(-90 0.783203 5)" fill="#E4E4E4"/>
<rect x="499.783" y="29" width="5" height="100" transform="rotate(-90 499.783 29)" fill="#E4E4E4"/>
<rect x="499.783" y="17" width="5" height="100" transform="rotate(-90 499.783 17)" fill="#E4E4E4"/>
<rect x="499.783" y="5" width="5" height="100" transform="rotate(-90 499.783 5)" fill="#E4E4E4"/>
<rect x="249.783" y="100" width="5" height="100" transform="rotate(-90 249.783 100)" fill="#E4E4E4"/>
<rect x="249.783" y="88" width="5" height="100" transform="rotate(-90 249.783 88)" fill="#E4E4E4"/>
<rect x="249.783" y="76" width="5" height="100" transform="rotate(-90 249.783 76)" fill="#E4E4E4"/>
<rect x="748.783" y="100" width="5" height="100" transform="rotate(-90 748.783 100)" fill="#E4E4E4"/>
<rect x="748.783" y="88" width="5" height="100" transform="rotate(-90 748.783 88)" fill="#E4E4E4"/>
<rect x="748.783" y="76" width="5" height="100" transform="rotate(-90 748.783 76)" fill="#E4E4E4"/>
<rect x="119" y="578" width="5" height="100" fill="#E4E4E4"/>
<rect x="131" y="578" width="5" height="100" fill="#E4E4E4"/>
<rect x="143" y="578" width="5" height="100" fill="#E4E4E4"/>
<rect x="618" y="578" width="5" height="100" fill="#E4E4E4"/>
<rect x="630" y="578" width="5" height="100" fill="#E4E4E4"/>
<rect x="642" y="578" width="5" height="100" fill="#E4E4E4"/>
<rect x="368" y="649" width="5" height="100" fill="#E4E4E4"/>
<rect x="380" y="649" width="5" height="100" fill="#E4E4E4"/>
<rect x="392" y="649" width="5" height="100" fill="#E4E4E4"/>
<rect x="867" y="649" width="5" height="100" fill="#E4E4E4"/>
<rect x="879" y="649" width="5" height="100" fill="#E4E4E4"/>
<rect x="891" y="649" width="5" height="100" fill="#E4E4E4"/>
<rect x="201.392" y="507" width="5" height="100" fill="#E4E4E4"/>
<rect x="213.392" y="507" width="5" height="100" fill="#E4E4E4"/>
<rect x="225.392" y="507" width="5" height="100" fill="#E4E4E4"/>
<rect x="700.392" y="507" width="5" height="100" fill="#E4E4E4"/>
<rect x="712.392" y="507" width="5" height="100" fill="#E4E4E4"/>
<rect x="724.392" y="507" width="5" height="100" fill="#E4E4E4"/>
<rect x="450.392" y="578" width="5" height="100" fill="#E4E4E4"/>
<rect x="462.392" y="578" width="5" height="100" fill="#E4E4E4"/>
<rect x="474.392" y="578" width="5" height="100" fill="#E4E4E4"/>
<rect x="949.392" y="578" width="5" height="100" fill="#E4E4E4"/>
<rect x="961.392" y="578" width="5" height="100" fill="#E4E4E4"/>
<rect x="973.392" y="578" width="5" height="100" fill="#E4E4E4"/>
<rect x="35.3916" y="507" width="5" height="100" fill="#E4E4E4"/>
<rect x="47.3916" y="507" width="5" height="100" fill="#E4E4E4"/>
<rect x="59.3916" y="507" width="5" height="100" fill="#E4E4E4"/>
<rect x="534.392" y="507" width="5" height="100" fill="#E4E4E4"/>
<rect x="546.392" y="507" width="5" height="100" fill="#E4E4E4"/>
<rect x="558.392" y="507" width="5" height="100" fill="#E4E4E4"/>
<rect x="284.392" y="578" width="5" height="100" fill="#E4E4E4"/>
<rect x="296.392" y="578" width="5" height="100" fill="#E4E4E4"/>
<rect x="308.392" y="578" width="5" height="100" fill="#E4E4E4"/>
<rect x="783.392" y="578" width="5" height="100" fill="#E4E4E4"/>
<rect x="795.392" y="578" width="5" height="100" fill="#E4E4E4"/>
<rect x="807.392" y="578" width="5" height="100" fill="#E4E4E4"/>
<rect x="119.392" y="267" width="5" height="100" fill="#E4E4E4"/>
<rect x="131.392" y="267" width="5" height="100" fill="#E4E4E4"/>
<rect x="143.392" y="267" width="5" height="100" fill="#E4E4E4"/>
<rect x="618.392" y="267" width="5" height="100" fill="#E4E4E4"/>
<rect x="630.392" y="267" width="5" height="100" fill="#E4E4E4"/>
<rect x="642.392" y="267" width="5" height="100" fill="#E4E4E4"/>
<rect x="368.392" y="338" width="5" height="100" fill="#E4E4E4"/>
<rect x="380.392" y="338" width="5" height="100" fill="#E4E4E4"/>
<rect x="392.392" y="338" width="5" height="100" fill="#E4E4E4"/>
<rect x="867.392" y="338" width="5" height="100" fill="#E4E4E4"/>
<rect x="879.392" y="338" width="5" height="100" fill="#E4E4E4"/>
<rect x="891.392" y="338" width="5" height="100" fill="#E4E4E4"/>
<rect x="201.783" y="196" width="5" height="100" fill="#E4E4E4"/>
<rect x="213.783" y="196" width="5" height="100" fill="#E4E4E4"/>
<rect x="225.783" y="196" width="5" height="100" fill="#E4E4E4"/>
<rect x="700.783" y="196" width="5" height="100" fill="#E4E4E4"/>
<rect x="712.783" y="196" width="5" height="100" fill="#E4E4E4"/>
<rect x="724.783" y="196" width="5" height="100" fill="#E4E4E4"/>
<rect x="450.783" y="267" width="5" height="100" fill="#E4E4E4"/>
<rect x="462.783" y="267" width="5" height="100" fill="#E4E4E4"/>
<rect x="474.783" y="267" width="5" height="100" fill="#E4E4E4"/>
<rect x="949.783" y="267" width="5" height="100" fill="#E4E4E4"/>
<rect x="961.783" y="267" width="5" height="100" fill="#E4E4E4"/>
<rect x="973.783" y="267" width="5" height="100" fill="#E4E4E4"/>
<rect x="35.7832" y="196" width="5" height="100" fill="#E4E4E4"/>
<rect x="47.7832" y="196" width="5" height="100" fill="#E4E4E4"/>
<rect x="59.7832" y="196" width="5" height="100" fill="#E4E4E4"/>
<rect x="534.783" y="196" width="5" height="100" fill="#E4E4E4"/>
<rect x="546.783" y="196" width="5" height="100" fill="#E4E4E4"/>
<rect x="558.783" y="196" width="5" height="100" fill="#E4E4E4"/>
<rect x="284.783" y="267" width="5" height="100" fill="#E4E4E4"/>
<rect x="296.783" y="267" width="5" height="100" fill="#E4E4E4"/>
<rect x="308.783" y="267" width="5" height="100" fill="#E4E4E4"/>
<rect x="783.783" y="267" width="5" height="100" fill="#E4E4E4"/>
<rect x="795.783" y="267" width="5" height="100" fill="#E4E4E4"/>
<rect x="807.783" y="267" width="5" height="100" fill="#E4E4E4"/>
<rect x="119" y="426" width="5" height="100" fill="#E4E4E4"/>
<rect x="131" y="426" width="5" height="100" fill="#E4E4E4"/>
<rect x="143" y="426" width="5" height="100" fill="#E4E4E4"/>
<rect x="618" y="426" width="5" height="100" fill="#E4E4E4"/>
<rect x="630" y="426" width="5" height="100" fill="#E4E4E4"/>
<rect x="642" y="426" width="5" height="100" fill="#E4E4E4"/>
<rect x="368" y="497" width="5" height="100" fill="#E4E4E4"/>
<rect x="380" y="497" width="5" height="100" fill="#E4E4E4"/>
<rect x="392" y="497" width="5" height="100" fill="#E4E4E4"/>
<rect x="867" y="497" width="5" height="100" fill="#E4E4E4"/>
<rect x="879" y="497" width="5" height="100" fill="#E4E4E4"/>
<rect x="891" y="497" width="5" height="100" fill="#E4E4E4"/>
<rect x="201.392" y="355" width="5" height="100" fill="#E4E4E4"/>
<rect x="213.392" y="355" width="5" height="100" fill="#E4E4E4"/>
<rect x="225.392" y="355" width="5" height="100" fill="#E4E4E4"/>
<rect x="700.392" y="355" width="5" height="100" fill="#E4E4E4"/>
<rect x="712.392" y="355" width="5" height="100" fill="#E4E4E4"/>
<rect x="724.392" y="355" width="5" height="100" fill="#E4E4E4"/>
<rect x="450.392" y="426" width="5" height="100" fill="#E4E4E4"/>
<rect x="462.392" y="426" width="5" height="100" fill="#E4E4E4"/>
<rect x="474.392" y="426" width="5" height="100" fill="#E4E4E4"/>
<rect x="949.392" y="426" width="5" height="100" fill="#E4E4E4"/>
<rect x="961.392" y="426" width="5" height="100" fill="#E4E4E4"/>
<rect x="973.392" y="426" width="5" height="100" fill="#E4E4E4"/>
<rect x="35.3916" y="355" width="5" height="100" fill="#E4E4E4"/>
<rect x="47.3916" y="355" width="5" height="100" fill="#E4E4E4"/>
<rect x="59.3916" y="355" width="5" height="100" fill="#E4E4E4"/>
<rect x="534.392" y="355" width="5" height="100" fill="#E4E4E4"/>
<rect x="546.392" y="355" width="5" height="100" fill="#E4E4E4"/>
<rect x="558.392" y="355" width="5" height="100" fill="#E4E4E4"/>
<rect x="284.392" y="426" width="5" height="100" fill="#E4E4E4"/>
<rect x="296.392" y="426" width="5" height="100" fill="#E4E4E4"/>
<rect x="308.392" y="426" width="5" height="100" fill="#E4E4E4"/>
<rect x="783.392" y="426" width="5" height="100" fill="#E4E4E4"/>
<rect x="795.392" y="426" width="5" height="100" fill="#E4E4E4"/>
<rect x="807.392" y="426" width="5" height="100" fill="#E4E4E4"/>
<rect x="119.392" y="115" width="5" height="100" fill="#E4E4E4"/>
<rect x="131.392" y="115" width="5" height="100" fill="#E4E4E4"/>
<rect x="143.392" y="115" width="5" height="100" fill="#E4E4E4"/>
<rect x="618.392" y="115" width="5" height="100" fill="#E4E4E4"/>
<rect x="630.392" y="115" width="5" height="100" fill="#E4E4E4"/>
<rect x="642.392" y="115" width="5" height="100" fill="#E4E4E4"/>
<rect x="368.392" y="186" width="5" height="100" fill="#E4E4E4"/>
<rect x="380.392" y="186" width="5" height="100" fill="#E4E4E4"/>
<rect x="392.392" y="186" width="5" height="100" fill="#E4E4E4"/>
<rect x="867.392" y="186" width="5" height="100" fill="#E4E4E4"/>
<rect x="879.392" y="186" width="5" height="100" fill="#E4E4E4"/>
<rect x="891.392" y="186" width="5" height="100" fill="#E4E4E4"/>
<rect x="201.783" y="44" width="5" height="100" fill="#E4E4E4"/>
<rect x="213.783" y="44" width="5" height="100" fill="#E4E4E4"/>
<rect x="225.783" y="44" width="5" height="100" fill="#E4E4E4"/>
<rect x="700.783" y="44" width="5" height="100" fill="#E4E4E4"/>
<rect x="712.783" y="44" width="5" height="100" fill="#E4E4E4"/>
<rect x="724.783" y="44" width="5" height="100" fill="#E4E4E4"/>
<rect x="450.783" y="115" width="5" height="100" fill="#E4E4E4"/>
<rect x="462.783" y="115" width="5" height="100" fill="#E4E4E4"/>
<rect x="474.783" y="115" width="5" height="100" fill="#E4E4E4"/>
<rect x="949.783" y="115" width="5" height="100" fill="#E4E4E4"/>
<rect x="961.783" y="115" width="5" height="100" fill="#E4E4E4"/>
<rect x="973.783" y="115" width="5" height="100" fill="#E4E4E4"/>
<rect x="35.7832" y="44" width="5" height="100" fill="#E4E4E4"/>
<rect x="47.7832" y="44" width="5" height="100" fill="#E4E4E4"/>
<rect x="59.7832" y="44" width="5" height="100" fill="#E4E4E4"/>
<rect x="534.783" y="44" width="5" height="100" fill="#E4E4E4"/>
<rect x="546.783" y="44" width="5" height="100" fill="#E4E4E4"/>
<rect x="558.783" y="44" width="5" height="100" fill="#E4E4E4"/>
<rect x="284.783" y="115" width="5" height="100" fill="#E4E4E4"/>
<rect x="296.783" y="115" width="5" height="100" fill="#E4E4E4"/>
<rect x="308.783" y="115" width="5" height="100" fill="#E4E4E4"/>
<rect x="783.783" y="115" width="5" height="100" fill="#E4E4E4"/>
<rect x="795.783" y="115" width="5" height="100" fill="#E4E4E4"/>
<rect x="807.783" y="115" width="5" height="100" fill="#E4E4E4"/>
</svg>
