<svg width="1028" height="685" viewBox="0 0 1028 685" fill="none" xmlns="http://www.w3.org/2000/svg">
<g clip-path="url(#clip0_38_907)">
<rect x="96.5" y="563.108" width="5" height="100" transform="rotate(-90 96.5 563.108)" fill="#BD8C5C"/>
<rect x="96.5" y="551.108" width="5" height="100" transform="rotate(-90 96.5 551.108)" fill="#BD8C5C"/>
<rect x="96.5" y="539.108" width="5" height="100" transform="rotate(-90 96.5 539.108)" fill="#BD8C5C"/>
<rect x="595.5" y="563.108" width="5" height="100" transform="rotate(-90 595.5 563.108)" fill="#BD8C5C"/>
<rect x="595.5" y="551.108" width="5" height="100" transform="rotate(-90 595.5 551.108)" fill="#BD8C5C"/>
<rect x="595.5" y="539.108" width="5" height="100" transform="rotate(-90 595.5 539.108)" fill="#BD8C5C"/>
<rect x="345.5" y="634.108" width="5" height="100" transform="rotate(-90 345.5 634.108)" fill="#BD8C5C"/>
<rect x="345.5" y="622.108" width="5" height="100" transform="rotate(-90 345.5 622.108)" fill="#BD8C5C"/>
<rect x="345.5" y="610.108" width="5" height="100" transform="rotate(-90 345.5 610.108)" fill="#BD8C5C"/>
<rect x="844.5" y="634.108" width="5" height="100" transform="rotate(-90 844.5 634.108)" fill="#BD8C5C"/>
<rect x="844.5" y="622.108" width="5" height="100" transform="rotate(-90 844.5 622.108)" fill="#BD8C5C"/>
<rect x="844.5" y="610.108" width="5" height="100" transform="rotate(-90 844.5 610.108)" fill="#BD8C5C"/>
<rect x="178.892" y="492.108" width="5" height="100" transform="rotate(-90 178.892 492.108)" fill="#BD8C5C"/>
<rect x="178.892" y="480.108" width="5" height="100" transform="rotate(-90 178.892 480.108)" fill="#BD8C5C"/>
<rect x="178.892" y="468.108" width="5" height="100" transform="rotate(-90 178.892 468.108)" fill="#BD8C5C"/>
<rect x="677.892" y="492.108" width="5" height="100" transform="rotate(-90 677.892 492.108)" fill="#BD8C5C"/>
<rect x="677.892" y="480.108" width="5" height="100" transform="rotate(-90 677.892 480.108)" fill="#BD8C5C"/>
<rect x="677.892" y="468.108" width="5" height="100" transform="rotate(-90 677.892 468.108)" fill="#BD8C5C"/>
<rect x="427.892" y="563.108" width="5" height="100" transform="rotate(-90 427.892 563.108)" fill="#BD8C5C"/>
<rect x="427.892" y="551.108" width="5" height="100" transform="rotate(-90 427.892 551.108)" fill="#BD8C5C"/>
<rect x="427.892" y="539.108" width="5" height="100" transform="rotate(-90 427.892 539.108)" fill="#BD8C5C"/>
<rect x="926.892" y="563.108" width="5" height="100" transform="rotate(-90 926.892 563.108)" fill="#BD8C5C"/>
<rect x="926.892" y="551.108" width="5" height="100" transform="rotate(-90 926.892 551.108)" fill="#BD8C5C"/>
<rect x="926.892" y="539.108" width="5" height="100" transform="rotate(-90 926.892 539.108)" fill="#BD8C5C"/>
<rect x="12.8916" y="492.108" width="5" height="100" transform="rotate(-90 12.8916 492.108)" fill="#BD8C5C"/>
<rect x="12.8916" y="480.108" width="5" height="100" transform="rotate(-90 12.8916 480.108)" fill="#BD8C5C"/>
<rect x="12.8916" y="468.108" width="5" height="100" transform="rotate(-90 12.8916 468.108)" fill="#BD8C5C"/>
<rect x="511.892" y="492.108" width="5" height="100" transform="rotate(-90 511.892 492.108)" fill="#BD8C5C"/>
<rect x="511.892" y="480.108" width="5" height="100" transform="rotate(-90 511.892 480.108)" fill="#BD8C5C"/>
<rect x="511.892" y="468.108" width="5" height="100" transform="rotate(-90 511.892 468.108)" fill="#BD8C5C"/>
<rect x="261.892" y="563.108" width="5" height="100" transform="rotate(-90 261.892 563.108)" fill="#BD8C5C"/>
<rect x="261.892" y="551.108" width="5" height="100" transform="rotate(-90 261.892 551.108)" fill="#BD8C5C"/>
<rect x="261.892" y="539.108" width="5" height="100" transform="rotate(-90 261.892 539.108)" fill="#BD8C5C"/>
<rect x="760.892" y="563.108" width="5" height="100" transform="rotate(-90 760.892 563.108)" fill="#BD8C5C"/>
<rect x="760.892" y="551.108" width="5" height="100" transform="rotate(-90 760.892 551.108)" fill="#BD8C5C"/>
<rect x="760.892" y="539.108" width="5" height="100" transform="rotate(-90 760.892 539.108)" fill="#BD8C5C"/>
<rect x="96.8916" y="252.108" width="5" height="100" transform="rotate(-90 96.8916 252.108)" fill="#BD8C5C"/>
<rect x="96.8916" y="240.108" width="5" height="100" transform="rotate(-90 96.8916 240.108)" fill="#BD8C5C"/>
<rect x="96.8916" y="228.108" width="5" height="100" transform="rotate(-90 96.8916 228.108)" fill="#BD8C5C"/>
<rect x="595.892" y="252.108" width="5" height="100" transform="rotate(-90 595.892 252.108)" fill="#BD8C5C"/>
<rect x="595.892" y="240.108" width="5" height="100" transform="rotate(-90 595.892 240.108)" fill="#BD8C5C"/>
<rect x="595.892" y="228.108" width="5" height="100" transform="rotate(-90 595.892 228.108)" fill="#BD8C5C"/>
<rect x="345.892" y="323.108" width="5" height="100" transform="rotate(-90 345.892 323.108)" fill="#BD8C5C"/>
<rect x="345.892" y="311.108" width="5" height="100" transform="rotate(-90 345.892 311.108)" fill="#BD8C5C"/>
<rect x="345.892" y="299.108" width="5" height="100" transform="rotate(-90 345.892 299.108)" fill="#BD8C5C"/>
<rect x="844.892" y="323.108" width="5" height="100" transform="rotate(-90 844.892 323.108)" fill="#BD8C5C"/>
<rect x="844.892" y="311.108" width="5" height="100" transform="rotate(-90 844.892 311.108)" fill="#BD8C5C"/>
<rect x="844.892" y="299.108" width="5" height="100" transform="rotate(-90 844.892 299.108)" fill="#BD8C5C"/>
<rect x="179.283" y="181.108" width="5" height="100" transform="rotate(-90 179.283 181.108)" fill="#BD8C5C"/>
<rect x="179.283" y="169.108" width="5" height="100" transform="rotate(-90 179.283 169.108)" fill="#BD8C5C"/>
<rect x="179.283" y="157.108" width="5" height="100" transform="rotate(-90 179.283 157.108)" fill="#BD8C5C"/>
<rect x="678.283" y="181.108" width="5" height="100" transform="rotate(-90 678.283 181.108)" fill="#BD8C5C"/>
<rect x="678.283" y="169.108" width="5" height="100" transform="rotate(-90 678.283 169.108)" fill="#BD8C5C"/>
<rect x="678.283" y="157.108" width="5" height="100" transform="rotate(-90 678.283 157.108)" fill="#BD8C5C"/>
<rect x="428.283" y="252.108" width="5" height="100" transform="rotate(-90 428.283 252.108)" fill="#BD8C5C"/>
<rect x="428.283" y="240.108" width="5" height="100" transform="rotate(-90 428.283 240.108)" fill="#BD8C5C"/>
<rect x="428.283" y="228.108" width="5" height="100" transform="rotate(-90 428.283 228.108)" fill="#BD8C5C"/>
<rect x="927.283" y="252.108" width="5" height="100" transform="rotate(-90 927.283 252.108)" fill="#BD8C5C"/>
<rect x="927.283" y="240.108" width="5" height="100" transform="rotate(-90 927.283 240.108)" fill="#BD8C5C"/>
<rect x="927.283" y="228.108" width="5" height="100" transform="rotate(-90 927.283 228.108)" fill="#BD8C5C"/>
<rect x="13.2832" y="181.108" width="5" height="100" transform="rotate(-90 13.2832 181.108)" fill="#BD8C5C"/>
<rect x="13.2832" y="169.108" width="5" height="100" transform="rotate(-90 13.2832 169.108)" fill="#BD8C5C"/>
<rect x="13.2832" y="157.108" width="5" height="100" transform="rotate(-90 13.2832 157.108)" fill="#BD8C5C"/>
<rect x="512.283" y="181.108" width="5" height="100" transform="rotate(-90 512.283 181.108)" fill="#BD8C5C"/>
<rect x="512.283" y="169.108" width="5" height="100" transform="rotate(-90 512.283 169.108)" fill="#BD8C5C"/>
<rect x="512.283" y="157.108" width="5" height="100" transform="rotate(-90 512.283 157.108)" fill="#BD8C5C"/>
<rect x="262.283" y="252.108" width="5" height="100" transform="rotate(-90 262.283 252.108)" fill="#BD8C5C"/>
<rect x="262.283" y="240.108" width="5" height="100" transform="rotate(-90 262.283 240.108)" fill="#BD8C5C"/>
<rect x="262.283" y="228.108" width="5" height="100" transform="rotate(-90 262.283 228.108)" fill="#BD8C5C"/>
<rect x="761.283" y="252.108" width="5" height="100" transform="rotate(-90 761.283 252.108)" fill="#BD8C5C"/>
<rect x="761.283" y="240.108" width="5" height="100" transform="rotate(-90 761.283 240.108)" fill="#BD8C5C"/>
<rect x="761.283" y="228.108" width="5" height="100" transform="rotate(-90 761.283 228.108)" fill="#BD8C5C"/>
<rect x="96.8916" y="411" width="5" height="100" transform="rotate(-90 96.8916 411)" fill="#BD8C5C"/>
<rect x="96.8916" y="399" width="5" height="100" transform="rotate(-90 96.8916 399)" fill="#BD8C5C"/>
<rect x="96.8916" y="387" width="5" height="100" transform="rotate(-90 96.8916 387)" fill="#BD8C5C"/>
<rect x="595.892" y="411" width="5" height="100" transform="rotate(-90 595.892 411)" fill="#BD8C5C"/>
<rect x="595.892" y="399" width="5" height="100" transform="rotate(-90 595.892 399)" fill="#BD8C5C"/>
<rect x="595.892" y="387" width="5" height="100" transform="rotate(-90 595.892 387)" fill="#BD8C5C"/>
<rect x="345.892" y="482" width="5" height="100" transform="rotate(-90 345.892 482)" fill="#BD8C5C"/>
<rect x="345.892" y="470" width="5" height="100" transform="rotate(-90 345.892 470)" fill="#BD8C5C"/>
<rect x="345.892" y="458" width="5" height="100" transform="rotate(-90 345.892 458)" fill="#BD8C5C"/>
<rect x="844.892" y="482" width="5" height="100" transform="rotate(-90 844.892 482)" fill="#BD8C5C"/>
<rect x="844.892" y="470" width="5" height="100" transform="rotate(-90 844.892 470)" fill="#BD8C5C"/>
<rect x="844.892" y="458" width="5" height="100" transform="rotate(-90 844.892 458)" fill="#BD8C5C"/>
<rect x="179.283" y="340" width="5" height="100" transform="rotate(-90 179.283 340)" fill="#BD8C5C"/>
<rect x="179.283" y="328" width="5" height="100" transform="rotate(-90 179.283 328)" fill="#BD8C5C"/>
<rect x="179.283" y="316" width="5" height="100" transform="rotate(-90 179.283 316)" fill="#BD8C5C"/>
<rect x="678.283" y="340" width="5" height="100" transform="rotate(-90 678.283 340)" fill="#BD8C5C"/>
<rect x="678.283" y="328" width="5" height="100" transform="rotate(-90 678.283 328)" fill="#BD8C5C"/>
<rect x="678.283" y="316" width="5" height="100" transform="rotate(-90 678.283 316)" fill="#BD8C5C"/>
<rect x="428.283" y="411" width="5" height="100" transform="rotate(-90 428.283 411)" fill="#BD8C5C"/>
<rect x="428.283" y="399" width="5" height="100" transform="rotate(-90 428.283 399)" fill="#BD8C5C"/>
<rect x="428.283" y="387" width="5" height="100" transform="rotate(-90 428.283 387)" fill="#BD8C5C"/>
<rect x="927.283" y="411" width="5" height="100" transform="rotate(-90 927.283 411)" fill="#BD8C5C"/>
<rect x="927.283" y="399" width="5" height="100" transform="rotate(-90 927.283 399)" fill="#BD8C5C"/>
<rect x="927.283" y="387" width="5" height="100" transform="rotate(-90 927.283 387)" fill="#BD8C5C"/>
<rect x="13.2832" y="340" width="5" height="100" transform="rotate(-90 13.2832 340)" fill="#BD8C5C"/>
<rect x="13.2832" y="328" width="5" height="100" transform="rotate(-90 13.2832 328)" fill="#BD8C5C"/>
<rect x="13.2832" y="316" width="5" height="100" transform="rotate(-90 13.2832 316)" fill="#BD8C5C"/>
<rect x="512.283" y="340" width="5" height="100" transform="rotate(-90 512.283 340)" fill="#BD8C5C"/>
<rect x="512.283" y="328" width="5" height="100" transform="rotate(-90 512.283 328)" fill="#BD8C5C"/>
<rect x="512.283" y="316" width="5" height="100" transform="rotate(-90 512.283 316)" fill="#BD8C5C"/>
<rect x="262.283" y="411" width="5" height="100" transform="rotate(-90 262.283 411)" fill="#BD8C5C"/>
<rect x="262.283" y="399" width="5" height="100" transform="rotate(-90 262.283 399)" fill="#BD8C5C"/>
<rect x="262.283" y="387" width="5" height="100" transform="rotate(-90 262.283 387)" fill="#BD8C5C"/>
<rect x="761.283" y="411" width="5" height="100" transform="rotate(-90 761.283 411)" fill="#BD8C5C"/>
<rect x="761.283" y="399" width="5" height="100" transform="rotate(-90 761.283 399)" fill="#BD8C5C"/>
<rect x="761.283" y="387" width="5" height="100" transform="rotate(-90 761.283 387)" fill="#BD8C5C"/>
<rect x="97.2832" y="100" width="5" height="100" transform="rotate(-90 97.2832 100)" fill="#BD8C5C"/>
<rect x="97.2832" y="88" width="5" height="100" transform="rotate(-90 97.2832 88)" fill="#BD8C5C"/>
<rect x="97.2832" y="76" width="5" height="100" transform="rotate(-90 97.2832 76)" fill="#BD8C5C"/>
<rect x="596.283" y="100" width="5" height="100" transform="rotate(-90 596.283 100)" fill="#BD8C5C"/>
<rect x="596.283" y="88" width="5" height="100" transform="rotate(-90 596.283 88)" fill="#BD8C5C"/>
<rect x="596.283" y="76" width="5" height="100" transform="rotate(-90 596.283 76)" fill="#BD8C5C"/>
<rect x="346.283" y="171" width="5" height="100" transform="rotate(-90 346.283 171)" fill="#BD8C5C"/>
<rect x="346.283" y="159" width="5" height="100" transform="rotate(-90 346.283 159)" fill="#BD8C5C"/>
<rect x="346.283" y="147" width="5" height="100" transform="rotate(-90 346.283 147)" fill="#BD8C5C"/>
<rect x="845.283" y="171" width="5" height="100" transform="rotate(-90 845.283 171)" fill="#BD8C5C"/>
<rect x="845.283" y="159" width="5" height="100" transform="rotate(-90 845.283 159)" fill="#BD8C5C"/>
<rect x="845.283" y="147" width="5" height="100" transform="rotate(-90 845.283 147)" fill="#BD8C5C"/>
<rect x="179.675" y="29" width="5" height="100" transform="rotate(-90 179.675 29)" fill="#BD8C5C"/>
<rect x="179.675" y="17" width="5" height="100" transform="rotate(-90 179.675 17)" fill="#BD8C5C"/>
<rect x="179.675" y="5" width="5" height="100" transform="rotate(-90 179.675 5)" fill="#BD8C5C"/>
<rect x="678.675" y="29" width="5" height="100" transform="rotate(-90 678.675 29)" fill="#BD8C5C"/>
<rect x="678.675" y="17" width="5" height="100" transform="rotate(-90 678.675 17)" fill="#BD8C5C"/>
<rect x="678.675" y="5" width="5" height="100" transform="rotate(-90 678.675 5)" fill="#BD8C5C"/>
<rect x="428.675" y="100" width="5" height="100" transform="rotate(-90 428.675 100)" fill="#BD8C5C"/>
<rect x="428.675" y="88" width="5" height="100" transform="rotate(-90 428.675 88)" fill="#BD8C5C"/>
<rect x="428.675" y="76" width="5" height="100" transform="rotate(-90 428.675 76)" fill="#BD8C5C"/>
<rect x="927.675" y="100" width="5" height="100" transform="rotate(-90 927.675 100)" fill="#BD8C5C"/>
<rect x="927.675" y="88" width="5" height="100" transform="rotate(-90 927.675 88)" fill="#BD8C5C"/>
<rect x="927.675" y="76" width="5" height="100" transform="rotate(-90 927.675 76)" fill="#BD8C5C"/>
<rect x="13.6748" y="29" width="5" height="100" transform="rotate(-90 13.6748 29)" fill="#BD8C5C"/>
<rect x="13.6748" y="17" width="5" height="100" transform="rotate(-90 13.6748 17)" fill="#BD8C5C"/>
<rect x="13.6748" y="5" width="5" height="100" transform="rotate(-90 13.6748 5)" fill="#BD8C5C"/>
<rect x="512.675" y="29" width="5" height="100" transform="rotate(-90 512.675 29)" fill="#BD8C5C"/>
<rect x="512.675" y="17" width="5" height="100" transform="rotate(-90 512.675 17)" fill="#BD8C5C"/>
<rect x="512.675" y="5" width="5" height="100" transform="rotate(-90 512.675 5)" fill="#BD8C5C"/>
<rect x="262.675" y="100" width="5" height="100" transform="rotate(-90 262.675 100)" fill="#BD8C5C"/>
<rect x="262.675" y="88" width="5" height="100" transform="rotate(-90 262.675 88)" fill="#BD8C5C"/>
<rect x="262.675" y="76" width="5" height="100" transform="rotate(-90 262.675 76)" fill="#BD8C5C"/>
<rect x="761.675" y="100" width="5" height="100" transform="rotate(-90 761.675 100)" fill="#BD8C5C"/>
<rect x="761.675" y="88" width="5" height="100" transform="rotate(-90 761.675 88)" fill="#BD8C5C"/>
<rect x="761.675" y="76" width="5" height="100" transform="rotate(-90 761.675 76)" fill="#BD8C5C"/>
<rect x="131.892" y="578" width="5" height="100" fill="#BD8C5C"/>
<rect x="143.892" y="578" width="5" height="100" fill="#BD8C5C"/>
<rect x="155.892" y="578" width="5" height="100" fill="#BD8C5C"/>
<rect x="630.892" y="578" width="5" height="100" fill="#BD8C5C"/>
<rect x="642.892" y="578" width="5" height="100" fill="#BD8C5C"/>
<rect x="654.892" y="578" width="5" height="100" fill="#BD8C5C"/>
<rect x="380.892" y="649" width="5" height="100" fill="#BD8C5C"/>
<rect x="392.892" y="649" width="5" height="100" fill="#BD8C5C"/>
<rect x="404.892" y="649" width="5" height="100" fill="#BD8C5C"/>
<rect x="879.892" y="649" width="5" height="100" fill="#BD8C5C"/>
<rect x="891.892" y="649" width="5" height="100" fill="#BD8C5C"/>
<rect x="903.892" y="649" width="5" height="100" fill="#BD8C5C"/>
<rect x="214.283" y="507" width="5" height="100" fill="#BD8C5C"/>
<rect x="226.283" y="507" width="5" height="100" fill="#BD8C5C"/>
<rect x="238.283" y="507" width="5" height="100" fill="#BD8C5C"/>
<rect x="713.283" y="507" width="5" height="100" fill="#BD8C5C"/>
<rect x="725.283" y="507" width="5" height="100" fill="#BD8C5C"/>
<rect x="737.283" y="507" width="5" height="100" fill="#BD8C5C"/>
<rect x="463.283" y="578" width="5" height="100" fill="#BD8C5C"/>
<rect x="475.283" y="578" width="5" height="100" fill="#BD8C5C"/>
<rect x="487.283" y="578" width="5" height="100" fill="#BD8C5C"/>
<rect x="463.283" y="578" width="5" height="100" fill="#BD8C5C"/>
<rect x="475.283" y="578" width="5" height="100" fill="#BD8C5C"/>
<rect x="487.283" y="578" width="5" height="100" fill="#BD8C5C"/>
<rect x="962.283" y="578" width="5" height="100" fill="#BD8C5C"/>
<rect x="974.283" y="578" width="5" height="100" fill="#BD8C5C"/>
<rect x="986.283" y="578" width="5" height="100" fill="#BD8C5C"/>
<rect x="48.2832" y="507" width="5" height="100" fill="#BD8C5C"/>
<rect x="60.2832" y="507" width="5" height="100" fill="#BD8C5C"/>
<rect x="72.2832" y="507" width="5" height="100" fill="#BD8C5C"/>
<rect x="547.283" y="507" width="5" height="100" fill="#BD8C5C"/>
<rect x="559.283" y="507" width="5" height="100" fill="#BD8C5C"/>
<rect x="571.283" y="507" width="5" height="100" fill="#BD8C5C"/>
<rect x="297.283" y="578" width="5" height="100" fill="#BD8C5C"/>
<rect x="309.283" y="578" width="5" height="100" fill="#BD8C5C"/>
<rect x="321.283" y="578" width="5" height="100" fill="#BD8C5C"/>
<rect x="796.283" y="578" width="5" height="100" fill="#BD8C5C"/>
<rect x="808.283" y="578" width="5" height="100" fill="#BD8C5C"/>
<rect x="820.283" y="578" width="5" height="100" fill="#BD8C5C"/>
<rect x="132.283" y="267" width="5" height="100" fill="#BD8C5C"/>
<rect x="144.283" y="267" width="5" height="100" fill="#BD8C5C"/>
<rect x="156.283" y="267" width="5" height="100" fill="#BD8C5C"/>
<rect x="631.283" y="267" width="5" height="100" fill="#BD8C5C"/>
<rect x="643.283" y="267" width="5" height="100" fill="#BD8C5C"/>
<rect x="655.283" y="267" width="5" height="100" fill="#BD8C5C"/>
<rect x="381.283" y="338" width="5" height="100" fill="#BD8C5C"/>
<rect x="393.283" y="338" width="5" height="100" fill="#BD8C5C"/>
<rect x="405.283" y="338" width="5" height="100" fill="#BD8C5C"/>
<rect x="880.283" y="338" width="5" height="100" fill="#BD8C5C"/>
<rect x="892.283" y="338" width="5" height="100" fill="#BD8C5C"/>
<rect x="904.283" y="338" width="5" height="100" fill="#BD8C5C"/>
<rect x="214.675" y="196" width="5" height="100" fill="#BD8C5C"/>
<rect x="226.675" y="196" width="5" height="100" fill="#BD8C5C"/>
<rect x="238.675" y="196" width="5" height="100" fill="#BD8C5C"/>
<rect x="713.675" y="196" width="5" height="100" fill="#BD8C5C"/>
<rect x="725.675" y="196" width="5" height="100" fill="#BD8C5C"/>
<rect x="737.675" y="196" width="5" height="100" fill="#BD8C5C"/>
<rect x="463.675" y="267" width="5" height="100" fill="#BD8C5C"/>
<rect x="475.675" y="267" width="5" height="100" fill="#BD8C5C"/>
<rect x="487.675" y="267" width="5" height="100" fill="#BD8C5C"/>
<rect x="962.675" y="267" width="5" height="100" fill="#BD8C5C"/>
<rect x="974.675" y="267" width="5" height="100" fill="#BD8C5C"/>
<rect x="986.675" y="267" width="5" height="100" fill="#BD8C5C"/>
<rect x="48.6748" y="196" width="5" height="100" fill="#BD8C5C"/>
<rect x="60.6748" y="196" width="5" height="100" fill="#BD8C5C"/>
<rect x="72.6748" y="196" width="5" height="100" fill="#BD8C5C"/>
<rect x="547.675" y="196" width="5" height="100" fill="#BD8C5C"/>
<rect x="559.675" y="196" width="5" height="100" fill="#BD8C5C"/>
<rect x="571.675" y="196" width="5" height="100" fill="#BD8C5C"/>
<rect x="297.675" y="267" width="5" height="100" fill="#BD8C5C"/>
<rect x="309.675" y="267" width="5" height="100" fill="#BD8C5C"/>
<rect x="321.675" y="267" width="5" height="100" fill="#BD8C5C"/>
<rect x="796.675" y="267" width="5" height="100" fill="#BD8C5C"/>
<rect x="808.675" y="267" width="5" height="100" fill="#BD8C5C"/>
<rect x="820.675" y="267" width="5" height="100" fill="#BD8C5C"/>
<rect x="131.892" y="426" width="5" height="100" fill="#BD8C5C"/>
<rect x="143.892" y="426" width="5" height="100" fill="#BD8C5C"/>
<rect x="155.892" y="426" width="5" height="100" fill="#BD8C5C"/>
<rect x="630.892" y="426" width="5" height="100" fill="#BD8C5C"/>
<rect x="642.892" y="426" width="5" height="100" fill="#BD8C5C"/>
<rect x="654.892" y="426" width="5" height="100" fill="#BD8C5C"/>
<rect x="380.892" y="497" width="5" height="100" fill="#BD8C5C"/>
<rect x="392.892" y="497" width="5" height="100" fill="#BD8C5C"/>
<rect x="404.892" y="497" width="5" height="100" fill="#BD8C5C"/>
<rect x="879.892" y="497" width="5" height="100" fill="#BD8C5C"/>
<rect x="891.892" y="497" width="5" height="100" fill="#BD8C5C"/>
<rect x="903.892" y="497" width="5" height="100" fill="#BD8C5C"/>
<rect x="214.283" y="355" width="5" height="100" fill="#BD8C5C"/>
<rect x="226.283" y="355" width="5" height="100" fill="#BD8C5C"/>
<rect x="238.283" y="355" width="5" height="100" fill="#BD8C5C"/>
<rect x="713.283" y="355" width="5" height="100" fill="#BD8C5C"/>
<rect x="725.283" y="355" width="5" height="100" fill="#BD8C5C"/>
<rect x="737.283" y="355" width="5" height="100" fill="#BD8C5C"/>
<rect x="463.283" y="426" width="5" height="100" fill="#BD8C5C"/>
<rect x="475.283" y="426" width="5" height="100" fill="#BD8C5C"/>
<rect x="487.283" y="426" width="5" height="100" fill="#BD8C5C"/>
<rect x="962.283" y="426" width="5" height="100" fill="#BD8C5C"/>
<rect x="974.283" y="426" width="5" height="100" fill="#BD8C5C"/>
<rect x="986.283" y="426" width="5" height="100" fill="#BD8C5C"/>
<rect x="48.2832" y="355" width="5" height="100" fill="#BD8C5C"/>
<rect x="60.2832" y="355" width="5" height="100" fill="#BD8C5C"/>
<rect x="72.2832" y="355" width="5" height="100" fill="#BD8C5C"/>
<rect x="547.283" y="355" width="5" height="100" fill="#BD8C5C"/>
<rect x="559.283" y="355" width="5" height="100" fill="#BD8C5C"/>
<rect x="571.283" y="355" width="5" height="100" fill="#BD8C5C"/>
<rect x="297.283" y="426" width="5" height="100" fill="#BD8C5C"/>
<rect x="309.283" y="426" width="5" height="100" fill="#BD8C5C"/>
<rect x="321.283" y="426" width="5" height="100" fill="#BD8C5C"/>
<rect x="796.283" y="426" width="5" height="100" fill="#BD8C5C"/>
<rect x="808.283" y="426" width="5" height="100" fill="#BD8C5C"/>
<rect x="820.283" y="426" width="5" height="100" fill="#BD8C5C"/>
<rect x="132.283" y="115" width="5" height="100" fill="#BD8C5C"/>
<rect x="144.283" y="115" width="5" height="100" fill="#BD8C5C"/>
<rect x="156.283" y="115" width="5" height="100" fill="#BD8C5C"/>
<rect x="631.283" y="115" width="5" height="100" fill="#BD8C5C"/>
<rect x="643.283" y="115" width="5" height="100" fill="#BD8C5C"/>
<rect x="655.283" y="115" width="5" height="100" fill="#BD8C5C"/>
<rect x="381.283" y="186" width="5" height="100" fill="#BD8C5C"/>
<rect x="393.283" y="186" width="5" height="100" fill="#BD8C5C"/>
<rect x="405.283" y="186" width="5" height="100" fill="#BD8C5C"/>
<rect x="880.283" y="186" width="5" height="100" fill="#BD8C5C"/>
<rect x="892.283" y="186" width="5" height="100" fill="#BD8C5C"/>
<rect x="904.283" y="186" width="5" height="100" fill="#BD8C5C"/>
<rect x="214.675" y="44" width="5" height="100" fill="#BD8C5C"/>
<rect x="226.675" y="44" width="5" height="100" fill="#BD8C5C"/>
<rect x="238.675" y="44" width="5" height="100" fill="#BD8C5C"/>
<rect x="713.675" y="44" width="5" height="100" fill="#BD8C5C"/>
<rect x="725.675" y="44" width="5" height="100" fill="#BD8C5C"/>
<rect x="737.675" y="44" width="5" height="100" fill="#BD8C5C"/>
<rect x="463.675" y="115" width="5" height="100" fill="#BD8C5C"/>
<rect x="475.675" y="115" width="5" height="100" fill="#BD8C5C"/>
<rect x="487.675" y="115" width="5" height="100" fill="#BD8C5C"/>
<rect x="962.675" y="115" width="5" height="100" fill="#BD8C5C"/>
<rect x="974.675" y="115" width="5" height="100" fill="#BD8C5C"/>
<rect x="986.675" y="115" width="5" height="100" fill="#BD8C5C"/>
<rect x="48.6748" y="44" width="5" height="100" fill="#BD8C5C"/>
<rect x="60.6748" y="44" width="5" height="100" fill="#BD8C5C"/>
<rect x="72.6748" y="44" width="5" height="100" fill="#BD8C5C"/>
<rect x="547.675" y="44" width="5" height="100" fill="#BD8C5C"/>
<rect x="559.675" y="44" width="5" height="100" fill="#BD8C5C"/>
<rect x="571.675" y="44" width="5" height="100" fill="#BD8C5C"/>
<rect x="297.675" y="115" width="5" height="100" fill="#BD8C5C"/>
<rect x="309.675" y="115" width="5" height="100" fill="#BD8C5C"/>
<rect x="321.675" y="115" width="5" height="100" fill="#BD8C5C"/>
<rect x="796.675" y="115" width="5" height="100" fill="#BD8C5C"/>
<rect x="808.675" y="115" width="5" height="100" fill="#BD8C5C"/>
<rect x="820.675" y="115" width="5" height="100" fill="#BD8C5C"/>
<rect x="179.108" y="663.108" width="5" height="100" transform="rotate(-90 179.108 663.108)" fill="#BD8C5C"/>
<rect x="179.108" y="651.108" width="5" height="100" transform="rotate(-90 179.108 651.108)" fill="#BD8C5C"/>
<rect x="179.108" y="639.108" width="5" height="100" transform="rotate(-90 179.108 639.108)" fill="#BD8C5C"/>
<rect x="511.892" y="657" width="5" height="100" transform="rotate(-90 511.892 657)" fill="#BD8C5C"/>
<rect x="511.892" y="645" width="5" height="100" transform="rotate(-90 511.892 645)" fill="#BD8C5C"/>
<rect x="511.892" y="633" width="5" height="100" transform="rotate(-90 511.892 633)" fill="#BD8C5C"/>
<rect x="0.891602" y="663" width="5" height="100" transform="rotate(-90 0.891602 663)" fill="#BD8C5C"/>
<rect x="0.891602" y="651" width="5" height="100" transform="rotate(-90 0.891602 651)" fill="#BD8C5C"/>
<rect x="0.891602" y="639" width="5" height="100" transform="rotate(-90 0.891602 639)" fill="#BD8C5C"/>
<rect x="683.892" y="663" width="5" height="100" transform="rotate(-90 683.892 663)" fill="#BD8C5C"/>
<rect x="683.892" y="651" width="5" height="100" transform="rotate(-90 683.892 651)" fill="#BD8C5C"/>
<rect x="683.892" y="639" width="5" height="100" transform="rotate(-90 683.892 639)" fill="#BD8C5C"/>
</g>
<defs>
<clipPath id="clip0_38_907">
<rect width="1027" height="685" fill="white" transform="translate(0.891602)"/>
</clipPath>
</defs>
</svg>
